<?xml version="1.0" encoding="UTF-8" standalone="no"?>
<!-- Created with Inkscape (http://www.inkscape.org/) -->

<svg
   width="11.906268mm"
   height="7.6729193mm"
   viewBox="0 0 11.906268 7.6729194"
   version="1.1"
   id="svg1"
   xml:space="preserve"
   inkscape:version="1.4.3 (0d15f750, 2025-12-25)"
   sodipodi:docname="icons.svg"
   xmlns:inkscape="http://www.inkscape.org/namespaces/inkscape"
   xmlns:sodipodi="http://sodipodi.sourceforge.net/DTD/sodipodi-0.dtd"
   xmlns="http://www.w3.org/2000/svg"
   xmlns:svg="http://www.w3.org/2000/svg"><sodipodi:namedview
     id="namedview1"
     pagecolor="#505050"
     bordercolor="#eeeeee"
     borderopacity="1"
     inkscape:showpageshadow="0"
     inkscape:pageopacity="0"
     inkscape:pagecheckerboard="0"
     inkscape:deskcolor="#d1d1d1"
     inkscape:document-units="mm"
     showguides="false"
     inkscape:zoom="3.0109102"
     inkscape:cx="190.64003"
     inkscape:cy="29.559168"
     inkscape:window-width="1728"
     inkscape:window-height="1051"
     inkscape:window-x="0"
     inkscape:window-y="38"
     inkscape:window-maximized="0"
     inkscape:current-layer="layer1"
     showgrid="false"><inkscape:page
       x="0"
       y="0"
       width="11.906268"
       height="7.6729193"
       id="page2"
       margin="0"
       bleed="0" /></sodipodi:namedview><defs
     id="defs1" /><g
     inkscape:label="Layer 1"
     inkscape:groupmode="layer"
     id="layer1"
     transform="translate(-50.303811,-205.89605)"><path
       id="path127"
       style="fill:#ffffff;stroke:none"
       d="m 52.023623,213.43667 0.07997,-1.38906 0.07997,-1.38906 h 1.176798 1.176798 v -0.79375 -0.79375 h -1.190638 -1.190625 l -10e-7,-0.8599 v -0.8599 h 1.256771 1.256771 l 0.08372,-0.7276 0.08372,-0.7276 h -2.266533 -2.266533 v 3.66007 l 0.0093,3.91007 z m 4.07346,0.1323 h 0.766168 l 0.848914,-1.32291 0.848913,-1.32292 h 0.107156 0.107155 l 0.813999,1.32292 0.813999,1.32291 h 0.903347 0.903347 v -0.11961 -0.11962 l -1.190625,-1.7032 -1.190625,-1.70321 8.42e-4,-0.2277 8.42e-4,-0.2277 1.05665,-1.5875 1.056649,-1.5875 8.42e-4,-0.19844 8.42e-4,-0.19843 h -0.796196 -0.796195 l -0.824817,1.34049 -0.824816,1.3405 -0.76559,-1.3405 -0.76559,-1.34049 H 56.23597 55.299666 l 0.199007,0.33073 0.199007,0.33072 0.874941,1.37636 0.874941,1.37635 v 0.28378 0.28378 l -1.058333,1.67575 -1.058333,1.67575 v 0.16985 0.16984 z" /></g></svg>
