<?xml version="1.0" encoding="UTF-8" standalone="no"?>
<!-- Created with Inkscape (http://www.inkscape.org/) -->

<svg
   width="20.111725mm"
   height="7.7212706mm"
   viewBox="0 0 20.111725 7.7212707"
   version="1.1"
   id="svg1"
   xml:space="preserve"
   inkscape:version="1.4.3 (0d15f750, 2025-12-25)"
   sodipodi:docname="icons.svg"
   xmlns:inkscape="http://www.inkscape.org/namespaces/inkscape"
   xmlns:sodipodi="http://sodipodi.sourceforge.net/DTD/sodipodi-0.dtd"
   xmlns="http://www.w3.org/2000/svg"
   xmlns:svg="http://www.w3.org/2000/svg"><sodipodi:namedview
     id="namedview1"
     pagecolor="#505050"
     bordercolor="#eeeeee"
     borderopacity="1"
     inkscape:showpageshadow="0"
     inkscape:pageopacity="0"
     inkscape:pagecheckerboard="0"
     inkscape:deskcolor="#d1d1d1"
     inkscape:document-units="mm"
     showguides="false"
     inkscape:zoom="3.0109102"
     inkscape:cx="190.64003"
     inkscape:cy="29.559168"
     inkscape:window-width="1728"
     inkscape:window-height="1051"
     inkscape:window-x="0"
     inkscape:window-y="38"
     inkscape:window-maximized="0"
     inkscape:current-layer="layer1"
     showgrid="false"><inkscape:page
       x="0"
       y="0"
       width="20.111725"
       height="7.7212706"
       id="page2"
       margin="0"
       bleed="0" /></sodipodi:namedview><defs
     id="defs1" /><g
     inkscape:label="Layer 1"
     inkscape:groupmode="layer"
     id="layer1"
     transform="translate(-91.289586,-206.51865)"><path
       id="path129"
       style="fill:#ffffff;stroke:none"
       d="m 93.160466,214.20399 0.0235,-2.84185 0.0754,-2.71198 h 0.5472 0.37836 l 0.0754,2.71198 0.0754,2.71198 0.8599,0.0829 0.8599,0.0829 v -2.79489 -2.79489 h 0.38762 0.38761 l 0.0754,2.71198 0.0754,2.71198 h 0.92604 0.92604 l 0.0743,-3.40268 0.0743,-3.40269 -0.31125,-0.37504 -0.31126,-0.37504 -3.46718,0.0736 -3.58406,-0.0303 -0.0189,7.66936 z m 7.525214,0.002 h 0.92605 v -3.83646 -3.83645 h -0.92605 -0.926044 v 3.83645 3.83646 z m 4.47628,0 h 2.75649 l 0.41851,-0.1606 0.41852,-0.1606 v -3.35835 -3.35836 l -0.3175,-0.3175 -0.3175,-0.3175 h -2.8575 -2.8575 v 0.92604 0.92604 h 2.24895 2.24896 v 1.85208 1.85209 h -1.32291 -1.32292 v -1.45521 -1.45521 h -0.92604 -0.92604 v 2.51354 2.51354 z m 5.31331,0 h 0.92604 v -3.83646 -3.83645 h -0.92604 -0.92604 v 3.83645 3.83646 z"
       inkscape:label="midi" /></g></svg>
