<?xml version="1.0" encoding="UTF-8" standalone="no"?>
<!-- Created with Inkscape (http://www.inkscape.org/) -->

<svg
   width="15.513609mm"
   height="14.222995mm"
   viewBox="0 0 15.513609 14.222995"
   version="1.1"
   id="svg1"
   xml:space="preserve"
   inkscape:version="1.4.3 (0d15f750, 2025-12-25)"
   sodipodi:docname="icons.svg"
   xmlns:inkscape="http://www.inkscape.org/namespaces/inkscape"
   xmlns:sodipodi="http://sodipodi.sourceforge.net/DTD/sodipodi-0.dtd"
   xmlns="http://www.w3.org/2000/svg"
   xmlns:svg="http://www.w3.org/2000/svg"><sodipodi:namedview
     id="namedview1"
     pagecolor="#505050"
     bordercolor="#eeeeee"
     borderopacity="1"
     inkscape:showpageshadow="0"
     inkscape:pageopacity="0"
     inkscape:pagecheckerboard="0"
     inkscape:deskcolor="#d1d1d1"
     inkscape:document-units="mm"
     showguides="false"
     inkscape:zoom="3.0109102"
     inkscape:cx="190.64003"
     inkscape:cy="29.559168"
     inkscape:window-width="1728"
     inkscape:window-height="1051"
     inkscape:window-x="0"
     inkscape:window-y="38"
     inkscape:window-maximized="0"
     inkscape:current-layer="layer1"
     showgrid="false"><inkscape:page
       x="0"
       y="0"
       width="15.513609"
       height="14.222995"
       id="page2"
       margin="0"
       bleed="0" /></sodipodi:namedview><defs
     id="defs1" /><g
     inkscape:label="Layer 1"
     inkscape:groupmode="layer"
     id="layer1"
     transform="translate(-24.472113,-202.08036)"><path
       id="path125"
       style="fill:#ffffff;stroke:none"
       d="m 32.197854,216.3021 c 0.888051,-0.034 0.912812,-0.6141 0.912812,-0.6141 v -6.54852 -6.54852 c 0,0 -0.154226,-0.50728 -0.912377,-0.51059 -0.758151,-0.003 -0.939706,0.50291 -0.939706,0.50291 v 6.71552 l -0.0073,6.36728 c 0,0 0.05847,0.67001 0.946526,0.63602 z m 3.33767,-1.30203 c 1.012123,0 1.014726,-0.63903 1.014726,-0.63903 v -5.2778 -4.89329 c 0,0 -0.06456,-0.82752 -1.058334,-0.83154 -0.993772,-0.004 -1.058333,0.83154 -1.058333,0.83154 v 5.08756 5.08756 c 0,0 0.08982,0.635 1.101941,0.635 z m -5.996733,-2.12498 v -3.53473 -3.67533 c 0,0 -0.131747,-0.57044 -0.881685,-0.55616 -0.749938,0.0143 -0.838106,0.69557 -0.838106,0.69557 v 3.49538 3.49538 c 0,0 0.0172,0.44168 0.842792,0.43858 0.825592,-0.003 0.876999,-0.35869 0.876999,-0.35869 z m -4.07374,-1.04123 c 0.865116,0.002 0.922504,-1.04783 0.922504,-1.04783 v -1.62229 -1.62229 c 0,0 0.123558,-1.00203 -0.906198,-1.00804 -1.056606,-0.006 -1.008917,0.6505 -1.008917,0.6505 v 1.90982 1.90981 c 0,0 0.127495,0.82871 0.992611,0.83032 z m 13.362639,-0.009 c 0.860412,-0.002 1.133712,-0.47598 1.133712,-0.47598 l 0.02432,-4.21267 c 0,0 -0.04087,-0.60664 -0.994743,-0.60301 -0.953868,0.004 -1.117799,0.635 -1.117799,0.635 v 4.20979 c 0,0 0.0941,0.4486 0.95451,0.44687 z"
       inkscape:label="sound" /></g></svg>
